<svg class="main-svg" xmlns="http://www.w3.org/2000/svg" xmlns:xlink="http://www.w3.org/1999/xlink" width="800" height="600" style="" viewBox="0 0 800 600"><rect x="0" y="0" width="800" height="600" style="fill: rgb(255, 255, 255); fill-opacity: 1;"/><defs id="defs-f8917f"><g class="clips"><clipPath id="clipf8917fxyplot" class="plotclip"><rect width="640" height="420"/></clipPath><clipPath class="axesclip" id="clipf8917fx"><rect x="80" y="0" width="640" height="600"/></clipPath><clipPath class="axesclip" id="clipf8917fy"><rect x="0" y="100" width="800" height="420"/></clipPath><clipPath class="axesclip" id="clipf8917fxy"><rect x="80" y="100" width="640" height="420"/></clipPath></g><g class="gradients"/></defs><g class="bglayer"><rect class="bg" x="80" y="100" width="640" height="420" style="fill: rgb(229, 236, 246); fill-opacity: 1; stroke-width: 0;"/></g><g class="layer-below"><g class="imagelayer"/><g class="shapelayer"/></g><g class="cartesianlayer"><g class="subplot xy"><g class="layer-subplot"><g class="shapelayer"/><g class="imagelayer"/></g><g class="gridlayer"><g class="x"><path class="xgrid crisp" transform="translate(171.43,0)" d="M0,100v420" style="stroke: rgb(255, 255, 255); stroke-opacity: 1; stroke-width: 1px;"/><path class="xgrid crisp" transform="translate(262.86,0)" d="M0,100v420" style="stroke: rgb(255, 255, 255); stroke-opacity: 1; stroke-width: 1px;"/><path class="xgrid crisp" transform="translate(354.29,0)" d="M0,100v420" style="stroke: rgb(255, 255, 255); stroke-opacity: 1; stroke-width: 1px;"/><path class="xgrid crisp" transform="translate(445.71,0)" d="M0,100v420" style="stroke: rgb(255, 255, 255); stroke-opacity: 1; stroke-width: 1px;"/><path class="xgrid crisp" transform="translate(537.14,0)" d="M0,100v420" style="stroke: rgb(255, 255, 255); stroke-opacity: 1; stroke-width: 1px;"/><path class="xgrid crisp" transform="translate(628.57,0)" d="M0,100v420" style="stroke: rgb(255, 255, 255); stroke-opacity: 1; stroke-width: 1px;"/></g><g class="y"><path class="ygrid crisp" transform="translate(0,474.45)" d="M80,0h640" style="stroke: rgb(255, 255, 255); stroke-opacity: 1; stroke-width: 1px;"/><path class="ygrid crisp" transform="translate(0,416.83)" d="M80,0h640" style="stroke: rgb(255, 255, 255); stroke-opacity: 1; stroke-width: 1px;"/><path class="ygrid crisp" transform="translate(0,359.21)" d="M80,0h640" style="stroke: rgb(255, 255, 255); stroke-opacity: 1; stroke-width: 1px;"/><path class="ygrid crisp" transform="translate(0,301.59000000000003)" d="M80,0h640" style="stroke: rgb(255, 255, 255); stroke-opacity: 1; stroke-width: 1px;"/><path class="ygrid crisp" transform="translate(0,243.97)" d="M80,0h640" style="stroke: rgb(255, 255, 255); stroke-opacity: 1; stroke-width: 1px;"/><path class="ygrid crisp" transform="translate(0,186.35)" d="M80,0h640" style="stroke: rgb(255, 255, 255); stroke-opacity: 1; stroke-width: 1px;"/><path class="ygrid crisp" transform="translate(0,128.72)" d="M80,0h640" style="stroke: rgb(255, 255, 255); stroke-opacity: 1; stroke-width: 1px;"/></g></g><g class="zerolinelayer"/><path class="xlines-below"/><path class="ylines-below"/><g class="overlines-below"/><g class="xaxislayer-below"/><g class="yaxislayer-below"/><g class="overaxes-below"/><g class="plot" transform="translate(80,100)" clip-path="url('#clipf8917fxyplot')"><g class="scatterlayer mlayer"><g class="trace scatter trace883eff" style="stroke-miterlimit: 2; opacity: 1;"><g class="fills"/><g class="errorbars"/><g class="lines"><path class="js-line" d="M0,389.31L9.38,385.58L9.69,385.49L17.51,383.73L17.82,383.68L26.26,383.04L26.58,383.04L36.89,383.79L37.21,383.83L50.96,386.77L51.28,386.85L90.67,397.83L90.98,397.88L100.05,398.91L100.36,398.92L109.12,398.76L109.43,398.73L118.5,397.14L118.81,397.05L127.25,394.12L127.56,393.99L136.94,388.98L137.25,388.78L145.7,382.67L146.01,382.42L156.95,372.29L157.26,371.97L166.02,362.2L166.33,361.83L178.21,346.52L178.52,346.09L190.72,328.48L191.03,328.01L241.68,251.25L241.99,250.83L256.06,233.53L256.38,233.19L266.07,223.32L266.38,223.04L275.45,215.53L275.76,215.3L284.51,209.71L284.83,209.54L293.58,205.57L293.89,205.46L303.59,202.89L303.9,202.84L313.59,202.02L313.9,202.02L323.91,202.74L324.22,202.78L338.29,205.77L338.6,205.86L353.3,210.29L353.61,210.39L372.68,215.78L372.99,215.85L387.69,217.91L388,217.92L398.32,217.52L398.63,217.49L409.26,215.08L409.57,214.98L418.95,210.97L419.27,210.8L427.71,205.6L428.02,205.38L437.4,197.83L437.71,197.54L446.16,189.2L446.47,188.87L458.97,174.1L459.29,173.7L475.86,150.59L476.17,150.12L529.01,70.1L529.32,69.68L540.89,55.24L541.2,54.88L551.83,43.68L552.14,43.38L564.03,33.54L564.34,33.32L573.4,27.8L573.72,27.64L583.72,23.58L584.04,23.48L593.73,21.44L594.04,21.41L602.79,21.02L603.11,21.03L613.74,22.11L614.05,22.17L625.62,24.78L625.93,24.86L640,29.11" style="vector-effect: non-scaling-stroke; fill: none; stroke: rgb(0, 0, 0); stroke-opacity: 1; stroke-width: 2px; opacity: 1;"/></g><g class="points"/><g class="text"/></g><g class="trace scatter trace817527" style="stroke-miterlimit: 2; opacity: 1;"><g class="fills"/><g class="errorbars"/><g class="lines"><path class="js-line" d="M0,340.68L162.58,339.99L162.89,339.92L170.4,337.82L170.71,337.65L176.65,334.17L176.96,333.9L184.78,326.97L185.09,326.69L188.53,323.22L188.84,322.87L197.91,313.11L198.22,312.71L202.29,308.05L202.6,307.68L234.8,271.31L235.11,271.01L238.55,267.49L238.87,267.09L253.87,252.13L254.19,251.85L262.32,244.9L262.63,244.62L271.38,237.7L271.7,237.46L287.64,227.28L287.95,227.13L309.53,217.87L309.84,217.78L319.84,214.98L320.16,214.92L332.35,212.54L332.66,212.48L378.31,206.03L378.62,205.96L390.82,202.94L391.13,202.82L398.94,200.29L399.26,200.2L408.32,196.54L408.64,196.39L416.77,192.17L417.08,192L432.4,182.44L432.71,182.18L438.03,178.31L438.34,178.04L446.16,171.61L446.47,171.33L463.04,157.81L463.35,157.63L469.6,154.1L469.92,153.95L475.23,152.32L475.54,152.27L484.61,151.25L484.92,151.25L512.75,151.1L513.06,151.1L640,151.1" style="vector-effect: non-scaling-stroke; fill: none; stroke: rgb(31, 119, 180); stroke-opacity: 1; stroke-width: 2px; opacity: 1;"/></g><g class="points"/><g class="text"/></g><g class="trace scatter tracea833e0" style="stroke-miterlimit: 2;"><g class="fills"><g><path class="js-fill" d="M0,356.08L158.83,355.38L159.14,355.32L167.27,352.59L167.58,352.46L172.9,348.96L173.21,348.65L177.9,344.44L178.21,344.04L185.09,336.93L185.4,336.71L207.91,311.78L208.23,311.33L213.85,304.87L214.17,304.52L254.19,260.9L254.5,260.65L261.38,254.42L261.69,254.14L274.2,243.68L274.51,243.48L287.64,234.48L287.95,234.33L310.15,223.44L310.46,223.32L330.79,217.53L331.1,217.45L361.74,213.06L362.05,213.03L382.37,210.33L382.69,210.27L403.63,205.01L403.95,204.87L413.64,200.99L413.95,200.82L426.77,194.28L427.08,194.07L437.4,187.42L437.71,187.13L452.1,175.87L452.41,175.64L460.85,168.75L461.16,168.54L467.1,165.31L467.42,165.23L470.85,164.09L471.17,164.02L479.61,163.41L479.92,163.41L640,163.56L640,138.64L497.12,138.64L496.81,138.64L483.67,139.14L483.36,139.15L475.23,141.06L474.92,141.13L459.29,151.12L458.97,151.4L452.1,157.39L451.78,157.65L443.34,165.06L443.03,165.4L435.21,172.1L434.9,172.38L417.39,184.34L417.08,184.63L405.2,191.45L404.89,191.63L390.19,197.56L389.88,197.67L379.25,200.83L378.94,200.92L351.73,205.73L351.42,205.79L335.16,207.53L334.85,207.56L311.4,211.6L311.09,211.67L294.83,216.87L294.52,217.02L279.82,224.12L279.51,224.28L256.38,240.94L256.06,241.19L245.12,251.12L244.81,251.52L233.24,262.93L232.93,263.21L216.67,281.47L216.36,281.76L211.98,286.63L211.67,286.93L205.1,294.47L204.79,294.84L199.79,300.88L199.47,301.16L194.47,306.66L194.16,306.98L181.96,319.11L181.65,319.37L178.52,321.45L178.21,321.7L171.02,324.69L170.71,324.74L0,325.28Z" style="fill: rgb(31, 119, 180); fill-opacity: 0.5; stroke-width: 0;"/></g></g><g class="errorbars"/><g class="lines"><path class="js-line" d="M0,325.28L170.71,324.74L171.02,324.69L178.21,321.7L178.52,321.45L181.65,319.37L181.96,319.11L194.16,306.98L194.47,306.66L199.47,301.16L199.79,300.88L204.79,294.84L205.1,294.47L211.67,286.93L211.98,286.63L216.36,281.76L216.67,281.47L232.93,263.21L233.24,262.93L244.81,251.52L245.12,251.12L256.06,241.19L256.38,240.94L279.51,224.28L279.82,224.12L294.52,217.02L294.83,216.87L311.09,211.67L311.4,211.6L334.85,207.56L335.16,207.53L351.42,205.79L351.73,205.73L378.94,200.92L379.25,200.83L389.88,197.67L390.19,197.56L404.89,191.63L405.2,191.45L417.08,184.63L417.39,184.34L434.9,172.38L435.21,172.1L443.03,165.4L443.34,165.06L451.78,157.65L452.1,157.39L458.97,151.4L459.29,151.12L474.92,141.13L475.23,141.06L483.36,139.15L483.67,139.14L496.81,138.64L497.12,138.64L640,138.64" style="vector-effect: non-scaling-stroke; fill: none; stroke: rgb(31, 119, 180); stroke-opacity: 1; stroke-width: 0px; opacity: 1;"/></g><g class="points"/><g class="text"/></g><g class="trace scatter tracec838ce" style="stroke-miterlimit: 2;"><g class="fills"/><g class="errorbars"/><g class="lines"><path class="js-line" d="M0,356.08L158.83,355.38L159.14,355.32L167.27,352.59L167.58,352.46L172.9,348.96L173.21,348.65L177.9,344.44L178.21,344.04L185.09,336.93L185.4,336.71L207.91,311.78L208.23,311.33L213.85,304.87L214.17,304.52L254.19,260.9L254.5,260.65L261.38,254.42L261.69,254.14L274.2,243.68L274.51,243.48L287.64,234.48L287.95,234.33L310.15,223.44L310.46,223.32L330.79,217.53L331.1,217.45L361.74,213.06L362.05,213.03L382.37,210.33L382.69,210.27L403.63,205.01L403.95,204.87L413.64,200.99L413.95,200.82L426.77,194.28L427.08,194.07L437.4,187.42L437.71,187.13L452.1,175.87L452.41,175.64L460.85,168.75L461.16,168.54L467.1,165.31L467.42,165.23L470.85,164.09L471.17,164.02L479.61,163.41L479.92,163.41L640,163.56" style="vector-effect: non-scaling-stroke; fill: none; stroke: rgb(31, 119, 180); stroke-opacity: 1; stroke-width: 0px; opacity: 1;"/></g><g class="points"/><g class="text"/></g></g></g><g class="overplot"/><path class="xlines-above crisp" d="M0,0" style="fill: none;"/><path class="ylines-above crisp" d="M0,0" style="fill: none;"/><g class="overlines-above"/><g class="xaxislayer-above"><g class="xtick"><text text-anchor="middle" x="0" y="533" transform="translate(80,0)" style="font-family: 'Open Sans', verdana, arial, sans-serif; font-size: 12px; fill: rgb(42, 63, 95); fill-opacity: 1; white-space: pre;">8</text></g><g class="xtick"><text text-anchor="middle" x="0" y="533" transform="translate(171.43,0)" style="font-family: 'Open Sans', verdana, arial, sans-serif; font-size: 12px; fill: rgb(42, 63, 95); fill-opacity: 1; white-space: pre;">10</text></g><g class="xtick"><text text-anchor="middle" x="0" y="533" transform="translate(262.86,0)" style="font-family: 'Open Sans', verdana, arial, sans-serif; font-size: 12px; fill: rgb(42, 63, 95); fill-opacity: 1; white-space: pre;">12</text></g><g class="xtick"><text text-anchor="middle" x="0" y="533" transform="translate(354.29,0)" style="font-family: 'Open Sans', verdana, arial, sans-serif; font-size: 12px; fill: rgb(42, 63, 95); fill-opacity: 1; white-space: pre;">14</text></g><g class="xtick"><text text-anchor="middle" x="0" y="533" transform="translate(445.71,0)" style="font-family: 'Open Sans', verdana, arial, sans-serif; font-size: 12px; fill: rgb(42, 63, 95); fill-opacity: 1; white-space: pre;">16</text></g><g class="xtick"><text text-anchor="middle" x="0" y="533" transform="translate(537.14,0)" style="font-family: 'Open Sans', verdana, arial, sans-serif; font-size: 12px; fill: rgb(42, 63, 95); fill-opacity: 1; white-space: pre;">18</text></g><g class="xtick"><text text-anchor="middle" x="0" y="533" transform="translate(628.57,0)" style="font-family: 'Open Sans', verdana, arial, sans-serif; font-size: 12px; fill: rgb(42, 63, 95); fill-opacity: 1; white-space: pre;">20</text></g><g class="xtick"><text text-anchor="middle" x="0" y="533" transform="translate(720,0)" style="font-family: 'Open Sans', verdana, arial, sans-serif; font-size: 12px; fill: rgb(42, 63, 95); fill-opacity: 1; white-space: pre;">22</text></g></g><g class="yaxislayer-above"><g class="ytick"><text text-anchor="end" x="79" y="4.199999999999999" transform="translate(0,474.45)" style="font-family: 'Open Sans', verdana, arial, sans-serif; font-size: 12px; fill: rgb(42, 63, 95); fill-opacity: 1; white-space: pre;">10</text></g><g class="ytick"><text text-anchor="end" x="79" y="4.199999999999999" transform="translate(0,416.83)" style="font-family: 'Open Sans', verdana, arial, sans-serif; font-size: 12px; fill: rgb(42, 63, 95); fill-opacity: 1; white-space: pre;">12</text></g><g class="ytick"><text text-anchor="end" x="79" y="4.199999999999999" transform="translate(0,359.21)" style="font-family: 'Open Sans', verdana, arial, sans-serif; font-size: 12px; fill: rgb(42, 63, 95); fill-opacity: 1; white-space: pre;">14</text></g><g class="ytick"><text text-anchor="end" x="79" y="4.199999999999999" transform="translate(0,301.59000000000003)" style="font-family: 'Open Sans', verdana, arial, sans-serif; font-size: 12px; fill: rgb(42, 63, 95); fill-opacity: 1; white-space: pre;">16</text></g><g class="ytick"><text text-anchor="end" x="79" y="4.199999999999999" transform="translate(0,243.97)" style="font-family: 'Open Sans', verdana, arial, sans-serif; font-size: 12px; fill: rgb(42, 63, 95); fill-opacity: 1; white-space: pre;">18</text></g><g class="ytick"><text text-anchor="end" x="79" y="4.199999999999999" transform="translate(0,186.35)" style="font-family: 'Open Sans', verdana, arial, sans-serif; font-size: 12px; fill: rgb(42, 63, 95); fill-opacity: 1; white-space: pre;">20</text></g><g class="ytick"><text text-anchor="end" x="79" y="4.199999999999999" transform="translate(0,128.72)" style="font-family: 'Open Sans', verdana, arial, sans-serif; font-size: 12px; fill: rgb(42, 63, 95); fill-opacity: 1; white-space: pre;">22</text></g></g><g class="overaxes-above"/></g></g><g class="polarlayer"/><g class="ternarylayer"/><g class="geolayer"/><g class="funnelarealayer"/><g class="pielayer"/><g class="treemaplayer"/><g class="sunburstlayer"/><g class="glimages"/><defs id="topdefs-f8917f"><g class="clips"/><clipPath id="legendf8917f"><rect width="147" height="58" x="0" y="0"/></clipPath></defs><g class="layer-above"><g class="imagelayer"/><g class="shapelayer"/></g><g class="infolayer"><g class="legend" pointer-events="all" transform="translate(86.4,104.2)"><rect class="bg" shape-rendering="crispEdges" style="stroke: rgb(68, 68, 68); stroke-opacity: 1; fill: rgb(255, 255, 255); fill-opacity: 1; stroke-width: 0px;" width="147" height="58" x="0" y="0"/><g class="scrollbox" transform="" clip-path="url('#legendf8917f')"><g class="groups" transform=""><g class="traces" transform="translate(0,14.5)" style="opacity: 1;"><text class="legendtext" text-anchor="start" x="40" y="4.680000000000001" style="font-family: 'Open Sans', verdana, arial, sans-serif; font-size: 12px; fill: rgb(42, 63, 95); fill-opacity: 1; white-space: pre;">regression function</text><g class="layers" style="opacity: 1;"><g class="legendfill"/><g class="legendlines"><path class="js-line" d="M5,0h30" style="fill: none; stroke: rgb(0, 0, 0); stroke-opacity: 1; stroke-width: 2px;"/></g><g class="legendsymbols"><g class="legendpoints"/></g></g><rect class="legendtoggle" x="0" y="-9.5" width="141.390625" height="19" style="fill: rgb(0, 0, 0); fill-opacity: 0;"/></g></g><g class="groups" transform="translate(0,10)"><g class="traces" transform="translate(0,33.5)" style="opacity: 1;"><text class="legendtext" text-anchor="start" x="40" y="4.680000000000001" style="font-family: 'Open Sans', verdana, arial, sans-serif; font-size: 12px; fill: rgb(42, 63, 95); fill-opacity: 1; white-space: pre;">knn45</text><g class="layers" style="opacity: 1;"><g class="legendfill"/><g class="legendlines"><path class="js-line" d="M5,0h30" style="fill: none; stroke: rgb(31, 119, 180); stroke-opacity: 1; stroke-width: 2px;"/></g><g class="legendsymbols"><g class="legendpoints"/></g></g><rect class="legendtoggle" x="0" y="-9.5" width="141.390625" height="19" style="fill: rgb(0, 0, 0); fill-opacity: 0;"/></g></g></g><rect class="scrollbar" rx="20" ry="3" width="0" height="0" style="fill: rgb(128, 139, 164); fill-opacity: 1;" x="0" y="0"/></g><g class="g-gtitle"/><g class="g-xtitle"><text class="xtitle" x="400" y="560.8" text-anchor="middle" style="font-family: 'Open Sans', verdana, arial, sans-serif; font-size: 14px; fill: rgb(42, 63, 95); opacity: 1; font-weight: normal; white-space: pre;">x</text></g><g class="g-ytitle"><text class="ytitle" transform="rotate(-90,40.840625,310)" x="40.840625" y="310" text-anchor="middle" style="font-family: 'Open Sans', verdana, arial, sans-serif; font-size: 14px; fill: rgb(42, 63, 95); opacity: 1; font-weight: normal; white-space: pre;">y</text></g></g></svg>