<svg class="main-svg" xmlns="http://www.w3.org/2000/svg" xmlns:xlink="http://www.w3.org/1999/xlink" width="800" height="600" style="" viewBox="0 0 800 600"><rect x="0" y="0" width="800" height="600" style="fill: rgb(255, 255, 255); fill-opacity: 1;"/><defs id="defs-e89f8e"><g class="clips"><clipPath id="clipe89f8exyplot" class="plotclip"><rect width="640" height="420"/></clipPath><clipPath class="axesclip" id="clipe89f8ex"><rect x="80" y="0" width="640" height="600"/></clipPath><clipPath class="axesclip" id="clipe89f8ey"><rect x="0" y="100" width="800" height="420"/></clipPath><clipPath class="axesclip" id="clipe89f8exy"><rect x="80" y="100" width="640" height="420"/></clipPath></g><g class="gradients"/></defs><g class="bglayer"><rect class="bg" x="80" y="100" width="640" height="420" style="fill: rgb(229, 236, 246); fill-opacity: 1; stroke-width: 0;"/></g><g class="layer-below"><g class="imagelayer"/><g class="shapelayer"/></g><g class="cartesianlayer"><g class="subplot xy"><g class="layer-subplot"><g class="shapelayer"/><g class="imagelayer"/></g><g class="gridlayer"><g class="x"><path class="xgrid crisp" transform="translate(153.85,0)" d="M0,100v420" style="stroke: rgb(255, 255, 255); stroke-opacity: 1; stroke-width: 1px;"/><path class="xgrid crisp" transform="translate(252.31,0)" d="M0,100v420" style="stroke: rgb(255, 255, 255); stroke-opacity: 1; stroke-width: 1px;"/><path class="xgrid crisp" transform="translate(350.77,0)" d="M0,100v420" style="stroke: rgb(255, 255, 255); stroke-opacity: 1; stroke-width: 1px;"/><path class="xgrid crisp" transform="translate(449.23,0)" d="M0,100v420" style="stroke: rgb(255, 255, 255); stroke-opacity: 1; stroke-width: 1px;"/><path class="xgrid crisp" transform="translate(547.69,0)" d="M0,100v420" style="stroke: rgb(255, 255, 255); stroke-opacity: 1; stroke-width: 1px;"/><path class="xgrid crisp" transform="translate(646.15,0)" d="M0,100v420" style="stroke: rgb(255, 255, 255); stroke-opacity: 1; stroke-width: 1px;"/></g><g class="y"><path class="ygrid crisp" transform="translate(0,512.73)" d="M80,0h640" style="stroke: rgb(255, 255, 255); stroke-opacity: 1; stroke-width: 1px;"/><path class="ygrid crisp" transform="translate(0,354.9)" d="M80,0h640" style="stroke: rgb(255, 255, 255); stroke-opacity: 1; stroke-width: 1px;"/><path class="ygrid crisp" transform="translate(0,275.99)" d="M80,0h640" style="stroke: rgb(255, 255, 255); stroke-opacity: 1; stroke-width: 1px;"/><path class="ygrid crisp" transform="translate(0,197.07999999999998)" d="M80,0h640" style="stroke: rgb(255, 255, 255); stroke-opacity: 1; stroke-width: 1px;"/><path class="ygrid crisp" transform="translate(0,118.16)" d="M80,0h640" style="stroke: rgb(255, 255, 255); stroke-opacity: 1; stroke-width: 1px;"/></g></g><g class="zerolinelayer"><path class="yzl zl crisp" transform="translate(0,433.82)" d="M80,0h640" style="stroke: rgb(255, 255, 255); stroke-opacity: 1; stroke-width: 2px;"/></g><path class="xlines-below"/><path class="ylines-below"/><g class="overlines-below"/><g class="xaxislayer-below"/><g class="yaxislayer-below"/><g class="overaxes-below"/><g class="plot" transform="translate(80,100)" clip-path="url('#clipe89f8exyplot')"><g class="scatterlayer mlayer"><g class="trace scatter trace5a3bab" style="stroke-miterlimit: 2; opacity: 1;"><g class="fills"/><g class="errorbars"/><g class="lines"><path class="js-line" d="M0,257.29L16.26,257.5L16.57,257.52L40.33,259.03L40.64,259.05L72.54,261.29L72.85,261.3L97.86,261.4L98.17,261.38L113.49,260.17L113.81,260.14L133.82,256.84L134.13,256.77L154.76,251.37L155.08,251.27L171.96,245.6L172.27,245.49L242.62,218.87L242.93,218.77L260.75,213.79L261.06,213.71L282.95,209.62L283.26,209.58L302.65,207.9L302.96,207.89L317.34,207.7L317.66,207.71L335.79,208.45L336.1,208.47L353.92,209.79L354.24,209.81L381.12,211.67L381.44,211.68L398.63,212.04L398.94,212.03L415.83,211.28L416.14,211.25L436.46,208.57L436.78,208.51L450.53,205.55L450.85,205.47L472.11,199.22L472.42,199.11L491.8,192.08L492.12,191.95L551.83,169.32L552.14,169.22L572.47,163.64L572.78,163.57L590.91,160.22L591.23,160.18L610.92,158.36L611.24,158.35L626.24,158.11L626.56,158.12L640,158.57" style="vector-effect: non-scaling-stroke; fill: none; stroke: rgb(0, 0, 0); stroke-opacity: 1; stroke-width: 2px; opacity: 1;"/></g><g class="points"/><g class="text"/></g><g class="trace scatter trace2247bf" style="stroke-miterlimit: 2; opacity: 1;"><g class="fills"/><g class="errorbars"/><g class="lines"><path class="js-line" d="M0,216.96L11.26,228.25L11.57,228.53L21.89,237.2L22.2,237.44L33.14,244.98L33.45,245.17L46.59,252.12L46.9,252.26L58.15,256.54L58.47,256.64L72.85,260.08L73.16,260.14L86.6,261.56L86.92,261.58L102.86,261.37L103.18,261.35L117.87,259.68L118.18,259.63L136.94,255.94L137.25,255.87L170.08,246.94L170.4,246.84L232.61,229.32L232.93,229.25L251.37,225.26L251.69,225.2L277.01,221.05L277.32,221L307.65,217.95L307.96,217.92L352.36,215.87L352.67,215.86L394.26,213.77L394.57,213.75L426.15,210.01L426.46,209.96L447.09,205.88L447.41,205.81L466.17,200.82L466.48,200.73L486.17,194.25L486.49,194.13L513.38,183.8L513.69,183.68L540.26,173.34L540.58,173.22L559.02,167.45L559.34,167.37L574.97,164.57L575.28,164.54L585.29,164.29L585.6,164.31L593.73,165.29L594.04,165.35L602.17,167.63L602.48,167.75L611.24,171.93L611.55,172.11L619.99,178.13L620.3,178.4L626.87,184.65L627.18,184.98L635.62,195.32L635.94,195.76L640,201.77" style="vector-effect: non-scaling-stroke; fill: none; stroke: rgb(140, 86, 75); stroke-opacity: 1; stroke-width: 2px; opacity: 1;"/></g><g class="points"/><g class="text"/></g><g class="trace scatter trace695c42" style="stroke-miterlimit: 2;"><g class="fills"><g><path class="js-fill" d="M0,399L7.5,366.95L7.82,365.76L15.01,340.97L15.32,340.01L22.82,319.44L23.14,318.68L30.01,303.86L30.33,303.26L37.21,291.7L37.52,291.24L44.08,282.75L44.4,282.4L51.28,275.73L51.59,275.47L58.47,270.65L58.78,270.46L66.6,266.76L66.91,266.64L75.97,264.18L76.29,264.13L84.42,263.31L84.73,263.3L109.74,262.08L110.05,262.04L130.06,258.8L130.38,258.74L151.64,253.88L151.95,253.8L173.21,249.61L173.52,249.58L185.72,248.74L186.03,248.73L200.1,249L200.41,249.02L218.23,250.91L218.54,250.96L234.49,253.69L234.8,253.75L288.27,263.59L288.58,263.63L304.52,264.94L304.84,264.95L322.03,264.77L322.34,264.75L341.73,262.25L342.04,262.19L361.74,257.07L362.05,256.97L378,251.05L378.31,250.92L397.07,242.25L397.38,242.09L415.2,232.64L415.52,232.47L455.53,210.08L455.85,209.92L473.36,201.16L473.67,201.02L489.61,194.62L489.93,194.5L512.75,185.61L513.06,185.48L544.33,173.56L544.64,173.45L555.27,170.44L555.58,170.38L562.77,169.99L563.09,170.01L569.65,171.33L569.97,171.44L576.22,174.42L576.53,174.61L582.47,179.27L582.78,179.57L588.1,185.5L588.41,185.91L594.67,195.37L594.98,195.92L601.23,208.48L601.54,209.19L607.48,224.44L607.8,225.34L614.36,246.5L614.68,247.63L621.55,275.34L621.87,276.74L629.37,314.39L629.68,316.14L636.25,356.34L636.56,358.43L640,382.55L640,21L636.87,33.64L636.56,34.85L628.43,63.45L628.12,64.45L621.55,83.62L621.24,84.46L614.36,101.29L614.05,101.99L607.48,115.37L607.17,115.96L600.29,127.58L599.98,128.06L591.23,139.9L590.91,140.27L582.78,148.87L582.47,149.16L574.34,155.92L574.03,156.15L565.28,161.78L564.96,161.96L501.18,186.98L500.87,187.1L482.11,193.91L481.8,194L471.79,196.31L471.48,196.37L459.29,197.49L458.97,197.49L443.97,196.76L443.65,196.72L426.77,193.66L426.46,193.59L397.38,184.94L397.07,184.84L368.93,175.91L368.62,175.82L353.3,172.11L352.98,172.04L340.48,170.09L340.17,170.05L328.6,169.31L328.29,169.3L314.22,169.95L313.9,169.98L300.15,172.36L299.83,172.43L284.83,176.98L284.51,177.1L271.7,182.5L271.38,182.65L257.63,189.79L257.31,189.97L210.1,220.43L209.79,220.64L191.34,232.46L191.03,232.64L178.52,239.72L178.21,239.89L165.39,245.87L165.08,246L150.07,250.99L149.76,251.07L125.37,257.15L125.06,257.21L110.37,259.37L110.05,259.4L94.73,260.13L94.42,260.14L85.67,259.74L85.35,259.7L79.1,258.21L78.79,258.1L71.91,254.76L71.6,254.57L65.03,249.56L64.72,249.28L56.9,240.66L56.59,240.25L48.77,228.22L48.46,227.66L40.64,211.56L40.33,210.82L33.14,191.78L32.83,190.85L24.07,161.25L23.76,160.05L16.26,128.15L15.95,126.69L8.13,86.03L7.82,84.24L0,34.92Z" style="fill: rgb(140, 86, 75); fill-opacity: 0.5; stroke-width: 0;"/></g></g><g class="errorbars"/><g class="lines"><path class="js-line" d="M0,34.92L7.82,84.24L8.13,86.03L15.95,126.69L16.26,128.15L23.76,160.05L24.07,161.25L32.83,190.85L33.14,191.78L40.33,210.82L40.64,211.56L48.46,227.66L48.77,228.22L56.59,240.25L56.9,240.66L64.72,249.28L65.03,249.56L71.6,254.57L71.91,254.76L78.79,258.1L79.1,258.21L85.35,259.7L85.67,259.74L94.42,260.14L94.73,260.13L110.05,259.4L110.37,259.37L125.06,257.21L125.37,257.15L149.76,251.07L150.07,250.99L165.08,246L165.39,245.87L178.21,239.89L178.52,239.72L191.03,232.64L191.34,232.46L209.79,220.64L210.1,220.43L257.31,189.97L257.63,189.79L271.38,182.65L271.7,182.5L284.51,177.1L284.83,176.98L299.83,172.43L300.15,172.36L313.9,169.98L314.22,169.95L328.29,169.3L328.6,169.31L340.17,170.05L340.48,170.09L352.98,172.04L353.3,172.11L368.62,175.82L368.93,175.91L397.07,184.84L397.38,184.94L426.46,193.59L426.77,193.66L443.65,196.72L443.97,196.76L458.97,197.49L459.29,197.49L471.48,196.37L471.79,196.31L481.8,194L482.11,193.91L500.87,187.1L501.18,186.98L564.96,161.96L565.28,161.78L574.03,156.15L574.34,155.92L582.47,149.16L582.78,148.87L590.91,140.27L591.23,139.9L599.98,128.06L600.29,127.58L607.17,115.96L607.48,115.37L614.05,101.99L614.36,101.29L621.24,84.46L621.55,83.62L628.12,64.45L628.43,63.45L636.56,34.85L636.87,33.64L640,21" style="vector-effect: non-scaling-stroke; fill: none; stroke: rgb(140, 86, 75); stroke-opacity: 1; stroke-width: 0px; opacity: 1;"/></g><g class="points"/><g class="text"/></g><g class="trace scatter traced58833" style="stroke-miterlimit: 2;"><g class="fills"/><g class="errorbars"/><g class="lines"><path class="js-line" d="M0,399L7.5,366.95L7.82,365.76L15.01,340.97L15.32,340.01L22.82,319.44L23.14,318.68L30.01,303.86L30.33,303.26L37.21,291.7L37.52,291.24L44.08,282.75L44.4,282.4L51.28,275.73L51.59,275.47L58.47,270.65L58.78,270.46L66.6,266.76L66.91,266.64L75.97,264.18L76.29,264.13L84.42,263.31L84.73,263.3L109.74,262.08L110.05,262.04L130.06,258.8L130.38,258.74L151.64,253.88L151.95,253.8L173.21,249.61L173.52,249.58L185.72,248.74L186.03,248.73L200.1,249L200.41,249.02L218.23,250.91L218.54,250.96L234.49,253.69L234.8,253.75L288.27,263.59L288.58,263.63L304.52,264.94L304.84,264.95L322.03,264.77L322.34,264.75L341.73,262.25L342.04,262.19L361.74,257.07L362.05,256.97L378,251.05L378.31,250.92L397.07,242.25L397.38,242.09L415.2,232.64L415.52,232.47L455.53,210.08L455.85,209.92L473.36,201.16L473.67,201.02L489.61,194.62L489.93,194.5L512.75,185.61L513.06,185.48L544.33,173.56L544.64,173.45L555.27,170.44L555.58,170.38L562.77,169.99L563.09,170.01L569.65,171.33L569.97,171.44L576.22,174.42L576.53,174.61L582.47,179.27L582.78,179.57L588.1,185.5L588.41,185.91L594.67,195.37L594.98,195.92L601.23,208.48L601.54,209.19L607.48,224.44L607.8,225.34L614.36,246.5L614.68,247.63L621.55,275.34L621.87,276.74L629.37,314.39L629.68,316.14L636.25,356.34L636.56,358.43L640,382.55" style="vector-effect: non-scaling-stroke; fill: none; stroke: rgb(140, 86, 75); stroke-opacity: 1; stroke-width: 0px; opacity: 1;"/></g><g class="points"/><g class="text"/></g></g></g><g class="overplot"/><path class="xlines-above crisp" d="M0,0" style="fill: none;"/><path class="ylines-above crisp" d="M0,0" style="fill: none;"/><g class="overlines-above"/><g class="xaxislayer-above"><g class="xtick"><text text-anchor="middle" x="0" y="533" transform="translate(153.85,0)" style="font-family: 'Open Sans', verdana, arial, sans-serif; font-size: 12px; fill: rgb(42, 63, 95); fill-opacity: 1; white-space: pre;">10</text></g><g class="xtick"><text text-anchor="middle" x="0" y="533" transform="translate(252.31,0)" style="font-family: 'Open Sans', verdana, arial, sans-serif; font-size: 12px; fill: rgb(42, 63, 95); fill-opacity: 1; white-space: pre;">12</text></g><g class="xtick"><text text-anchor="middle" x="0" y="533" transform="translate(350.77,0)" style="font-family: 'Open Sans', verdana, arial, sans-serif; font-size: 12px; fill: rgb(42, 63, 95); fill-opacity: 1; white-space: pre;">14</text></g><g class="xtick"><text text-anchor="middle" x="0" y="533" transform="translate(449.23,0)" style="font-family: 'Open Sans', verdana, arial, sans-serif; font-size: 12px; fill: rgb(42, 63, 95); fill-opacity: 1; white-space: pre;">16</text></g><g class="xtick"><text text-anchor="middle" x="0" y="533" transform="translate(547.69,0)" style="font-family: 'Open Sans', verdana, arial, sans-serif; font-size: 12px; fill: rgb(42, 63, 95); fill-opacity: 1; white-space: pre;">18</text></g><g class="xtick"><text text-anchor="middle" x="0" y="533" transform="translate(646.15,0)" style="font-family: 'Open Sans', verdana, arial, sans-serif; font-size: 12px; fill: rgb(42, 63, 95); fill-opacity: 1; white-space: pre;">20</text></g></g><g class="yaxislayer-above"><g class="ytick"><text text-anchor="end" x="79" y="4.199999999999999" transform="translate(0,512.73)" style="font-family: 'Open Sans', verdana, arial, sans-serif; font-size: 12px; fill: rgb(42, 63, 95); fill-opacity: 1; white-space: pre;">−10</text></g><g class="ytick"><text text-anchor="end" x="79" y="4.199999999999999" transform="translate(0,433.82)" style="font-family: 'Open Sans', verdana, arial, sans-serif; font-size: 12px; fill: rgb(42, 63, 95); fill-opacity: 1; white-space: pre;">0</text></g><g class="ytick"><text text-anchor="end" x="79" y="4.199999999999999" transform="translate(0,354.9)" style="font-family: 'Open Sans', verdana, arial, sans-serif; font-size: 12px; fill: rgb(42, 63, 95); fill-opacity: 1; white-space: pre;">10</text></g><g class="ytick"><text text-anchor="end" x="79" y="4.199999999999999" transform="translate(0,275.99)" style="font-family: 'Open Sans', verdana, arial, sans-serif; font-size: 12px; fill: rgb(42, 63, 95); fill-opacity: 1; white-space: pre;">20</text></g><g class="ytick"><text text-anchor="end" x="79" y="4.199999999999999" transform="translate(0,197.07999999999998)" style="font-family: 'Open Sans', verdana, arial, sans-serif; font-size: 12px; fill: rgb(42, 63, 95); fill-opacity: 1; white-space: pre;">30</text></g><g class="ytick"><text text-anchor="end" x="79" y="4.199999999999999" transform="translate(0,118.16)" style="font-family: 'Open Sans', verdana, arial, sans-serif; font-size: 12px; fill: rgb(42, 63, 95); fill-opacity: 1; white-space: pre;">40</text></g></g><g class="overaxes-above"/></g></g><g class="polarlayer"/><g class="ternarylayer"/><g class="geolayer"/><g class="funnelarealayer"/><g class="pielayer"/><g class="treemaplayer"/><g class="sunburstlayer"/><g class="glimages"/><defs id="topdefs-e89f8e"><g class="clips"/><clipPath id="legende89f8e"><rect width="147" height="58" x="0" y="0"/></clipPath></defs><g class="layer-above"><g class="imagelayer"/><g class="shapelayer"/></g><g class="infolayer"><g class="legend" pointer-events="all" transform="translate(86.4,104.2)"><rect class="bg" shape-rendering="crispEdges" style="stroke: rgb(68, 68, 68); stroke-opacity: 1; fill: rgb(255, 255, 255); fill-opacity: 1; stroke-width: 0px;" width="147" height="58" x="0" y="0"/><g class="scrollbox" transform="" clip-path="url('#legende89f8e')"><g class="groups" transform=""><g class="traces" transform="translate(0,14.5)" style="opacity: 1;"><text class="legendtext" text-anchor="start" x="40" y="4.680000000000001" style="font-family: 'Open Sans', verdana, arial, sans-serif; font-size: 12px; fill: rgb(42, 63, 95); fill-opacity: 1; white-space: pre;">regression function</text><g class="layers" style="opacity: 1;"><g class="legendfill"/><g class="legendlines"><path class="js-line" d="M5,0h30" style="fill: none; stroke: rgb(0, 0, 0); stroke-opacity: 1; stroke-width: 2px;"/></g><g class="legendsymbols"><g class="legendpoints"/></g></g><rect class="legendtoggle" x="0" y="-9.5" width="141.390625" height="19" style="fill: rgb(0, 0, 0); fill-opacity: 0;"/></g></g><g class="groups" transform="translate(0,10)"><g class="traces" transform="translate(0,33.5)" style="opacity: 1;"><text class="legendtext" text-anchor="start" x="40" y="4.680000000000001" style="font-family: 'Open Sans', verdana, arial, sans-serif; font-size: 12px; fill: rgb(42, 63, 95); fill-opacity: 1; white-space: pre;">lr6</text><g class="layers" style="opacity: 1;"><g class="legendfill"/><g class="legendlines"><path class="js-line" d="M5,0h30" style="fill: none; stroke: rgb(140, 86, 75); stroke-opacity: 1; stroke-width: 2px;"/></g><g class="legendsymbols"><g class="legendpoints"/></g></g><rect class="legendtoggle" x="0" y="-9.5" width="141.390625" height="19" style="fill: rgb(0, 0, 0); fill-opacity: 0;"/></g></g></g><rect class="scrollbar" rx="20" ry="3" width="0" height="0" style="fill: rgb(128, 139, 164); fill-opacity: 1;" x="0" y="0"/></g><g class="g-gtitle"/><g class="g-xtitle"><text class="xtitle" x="400" y="560.8" text-anchor="middle" style="font-family: 'Open Sans', verdana, arial, sans-serif; font-size: 14px; fill: rgb(42, 63, 95); opacity: 1; font-weight: normal; white-space: pre;">x</text></g><g class="g-ytitle"><text class="ytitle" transform="rotate(-90,33.840625,310)" x="33.840625" y="310" text-anchor="middle" style="font-family: 'Open Sans', verdana, arial, sans-serif; font-size: 14px; fill: rgb(42, 63, 95); opacity: 1; font-weight: normal; white-space: pre;">y</text></g></g></svg>