<svg class="main-svg" xmlns="http://www.w3.org/2000/svg" xmlns:xlink="http://www.w3.org/1999/xlink" width="800" height="600" style="" viewBox="0 0 800 600"><rect x="0" y="0" width="800" height="600" style="fill: rgb(255, 255, 255); fill-opacity: 1;"/><defs id="defs-c0aad8"><g class="clips"><clipPath id="clipc0aad8xyplot" class="plotclip"><rect width="640" height="420"/></clipPath><clipPath class="axesclip" id="clipc0aad8x"><rect x="80" y="0" width="640" height="600"/></clipPath><clipPath class="axesclip" id="clipc0aad8y"><rect x="0" y="100" width="800" height="420"/></clipPath><clipPath class="axesclip" id="clipc0aad8xy"><rect x="80" y="100" width="640" height="420"/></clipPath></g><g class="gradients"/></defs><g class="bglayer"><rect class="bg" x="80" y="100" width="640" height="420" style="fill: rgb(229, 236, 246); fill-opacity: 1; stroke-width: 0;"/></g><g class="layer-below"><g class="imagelayer"/><g class="shapelayer"/></g><g class="cartesianlayer"><g class="subplot xy"><g class="layer-subplot"><g class="shapelayer"/><g class="imagelayer"/></g><g class="gridlayer"><g class="x"><path class="xgrid crisp" transform="translate(171.43,0)" d="M0,100v420" style="stroke: rgb(255, 255, 255); stroke-opacity: 1; stroke-width: 1px;"/><path class="xgrid crisp" transform="translate(262.86,0)" d="M0,100v420" style="stroke: rgb(255, 255, 255); stroke-opacity: 1; stroke-width: 1px;"/><path class="xgrid crisp" transform="translate(354.29,0)" d="M0,100v420" style="stroke: rgb(255, 255, 255); stroke-opacity: 1; stroke-width: 1px;"/><path class="xgrid crisp" transform="translate(445.71,0)" d="M0,100v420" style="stroke: rgb(255, 255, 255); stroke-opacity: 1; stroke-width: 1px;"/><path class="xgrid crisp" transform="translate(537.14,0)" d="M0,100v420" style="stroke: rgb(255, 255, 255); stroke-opacity: 1; stroke-width: 1px;"/><path class="xgrid crisp" transform="translate(628.57,0)" d="M0,100v420" style="stroke: rgb(255, 255, 255); stroke-opacity: 1; stroke-width: 1px;"/></g><g class="y"><path class="ygrid crisp" transform="translate(0,502.7)" d="M80,0h640" style="stroke: rgb(255, 255, 255); stroke-opacity: 1; stroke-width: 1px;"/><path class="ygrid crisp" transform="translate(0,452.7)" d="M80,0h640" style="stroke: rgb(255, 255, 255); stroke-opacity: 1; stroke-width: 1px;"/><path class="ygrid crisp" transform="translate(0,402.7)" d="M80,0h640" style="stroke: rgb(255, 255, 255); stroke-opacity: 1; stroke-width: 1px;"/><path class="ygrid crisp" transform="translate(0,352.7)" d="M80,0h640" style="stroke: rgb(255, 255, 255); stroke-opacity: 1; stroke-width: 1px;"/><path class="ygrid crisp" transform="translate(0,302.7)" d="M80,0h640" style="stroke: rgb(255, 255, 255); stroke-opacity: 1; stroke-width: 1px;"/><path class="ygrid crisp" transform="translate(0,252.7)" d="M80,0h640" style="stroke: rgb(255, 255, 255); stroke-opacity: 1; stroke-width: 1px;"/><path class="ygrid crisp" transform="translate(0,202.7)" d="M80,0h640" style="stroke: rgb(255, 255, 255); stroke-opacity: 1; stroke-width: 1px;"/><path class="ygrid crisp" transform="translate(0,152.7)" d="M80,0h640" style="stroke: rgb(255, 255, 255); stroke-opacity: 1; stroke-width: 1px;"/><path class="ygrid crisp" transform="translate(0,102.7)" d="M80,0h640" style="stroke: rgb(255, 255, 255); stroke-opacity: 1; stroke-width: 1px;"/></g></g><g class="zerolinelayer"/><path class="xlines-below"/><path class="ylines-below"/><g class="overlines-below"/><g class="xaxislayer-below"/><g class="yaxislayer-below"/><g class="overaxes-below"/><g class="plot" transform="translate(80,100)" clip-path="url('#clipc0aad8xyplot')"><g class="scatterlayer mlayer"><g class="trace scatter trace6762ce" style="stroke-miterlimit: 2;"><g class="fills"><g><path class="js-fill" d="M0,390.59L10,387.19L10.32,387.11L21.26,385.36L21.57,385.33L32.52,385.37L32.83,385.39L46.9,387.48L47.21,387.55L70.97,393.66L71.28,393.74L86.92,397.36L87.23,397.42L98.17,398.81L98.49,398.83L109.12,398.79L109.43,398.76L118.18,397.45L118.5,397.38L127.87,394.53L128.19,394.41L139.13,389.07L139.44,388.88L147.57,383.48L147.88,383.25L156.95,375.83L157.26,375.55L169.15,363.77L169.46,363.43L183.84,346.6L184.15,346.2L197.91,328.27L198.22,327.85L237.62,275.61L237.93,275.24L250.43,261.09L250.75,260.76L263.25,248.89L263.57,248.62L274.51,240.4L274.82,240.2L284.83,234.6L285.14,234.45L295.46,230.6L295.77,230.51L304.52,228.7L304.84,228.66L314.84,228.08L315.15,228.09L324.85,228.81L325.16,228.85L342.35,232.33L342.67,232.41L377.68,240.88L378,240.92L388.63,241.89L388.94,241.9L398.63,241.49L398.94,241.46L408.95,239.49L409.26,239.41L418.95,235.84L419.27,235.7L430.21,229.6L430.52,229.4L440.21,222.17L440.53,221.91L451.78,211.5L452.1,211.18L465.54,196.27L465.85,195.9L477.42,181.42L477.73,181.01L491.18,163.02L491.49,162.59L524.63,118.8L524.94,118.42L540.26,101.34L540.58,101.02L552.46,90.17L552.77,89.91L563.4,82.26L563.71,82.07L574.97,76.23L575.28,76.1L584.35,73.07L584.66,72.99L593.73,71.38L594.04,71.35L604.36,71.07L604.67,71.08L614.99,72.16L615.3,72.2L635.31,76.76L635.62,76.84L640,78.03L640,28.03L634.37,26.51L634.06,26.42L618.11,22.69L617.8,22.63L604.67,21.08L604.36,21.07L594.04,21.35L593.73,21.39L584.66,22.99L584.35,23.07L575.28,26.1L574.97,26.23L563.71,32.07L563.4,32.27L552.77,39.91L552.46,40.17L540.58,51.02L540.26,51.34L524.94,68.42L524.63,68.8L491.49,112.59L491.18,113.02L477.73,131.01L477.42,131.42L465.85,145.9L465.54,146.27L452.1,161.18L451.78,161.5L440.53,171.91L440.21,172.17L430.52,179.4L430.21,179.6L419.27,185.7L418.95,185.84L409.26,189.41L408.95,189.5L398.94,191.46L398.63,191.5L388.94,191.9L388.63,191.89L378,190.92L377.68,190.88L338.29,181.33L337.98,181.26L325.16,178.86L324.85,178.81L315.15,178.09L314.84,178.08L303.59,178.83L303.27,178.88L293.89,181.06L293.58,181.16L282.95,185.51L282.64,185.67L271.38,192.54L271.07,192.76L261.69,200.24L261.38,200.51L250.75,210.77L250.43,211.09L237.93,225.24L237.62,225.61L202.6,271.93L202.29,272.36L184.15,296.21L183.84,296.6L169.15,313.77L168.83,314.11L156.64,326.11L156.33,326.38L145.07,335.27L144.76,335.48L133.82,341.93L133.5,342.08L124.44,345.75L124.12,345.85L114.12,348.21L113.81,348.26L101.61,348.98L101.3,348.97L90.98,348.03L90.67,347.99L61.28,341.03L60.97,340.94L43.77,336.87L43.46,336.81L32.83,335.4L32.52,335.37L20.32,335.43L20.01,335.46L8.75,337.52L8.44,337.61L0,340.6Z" style="fill: rgb(170, 170, 170); fill-opacity: 0.5; stroke-width: 0;"/></g></g><g class="errorbars"/><g class="lines"><path class="js-line" d="M0,340.6L8.44,337.61L8.75,337.52L20.01,335.46L20.32,335.43L32.52,335.37L32.83,335.4L43.46,336.81L43.77,336.87L60.97,340.94L61.28,341.03L90.67,347.99L90.98,348.03L101.3,348.97L101.61,348.98L113.81,348.26L114.12,348.21L124.12,345.85L124.44,345.75L133.5,342.08L133.82,341.93L144.76,335.48L145.07,335.27L156.33,326.38L156.64,326.11L168.83,314.11L169.15,313.77L183.84,296.6L184.15,296.21L202.29,272.36L202.6,271.93L237.62,225.61L237.93,225.24L250.43,211.09L250.75,210.77L261.38,200.51L261.69,200.24L271.07,192.76L271.38,192.54L282.64,185.67L282.95,185.51L293.58,181.16L293.89,181.06L303.27,178.88L303.59,178.83L314.84,178.08L315.15,178.09L324.85,178.81L325.16,178.86L337.98,181.26L338.29,181.33L377.68,190.88L378,190.92L388.63,191.89L388.94,191.9L398.63,191.5L398.94,191.46L408.95,189.5L409.26,189.41L418.95,185.84L419.27,185.7L430.21,179.6L430.52,179.4L440.21,172.17L440.53,171.91L451.78,161.5L452.1,161.18L465.54,146.27L465.85,145.9L477.42,131.42L477.73,131.01L491.18,113.02L491.49,112.59L524.63,68.8L524.94,68.42L540.26,51.34L540.58,51.02L552.46,40.17L552.77,39.91L563.4,32.27L563.71,32.07L574.97,26.23L575.28,26.1L584.35,23.07L584.66,22.99L593.73,21.39L594.04,21.35L604.36,21.07L604.67,21.08L617.8,22.63L618.11,22.69L634.06,26.42L634.37,26.51L640,28.03" style="vector-effect: non-scaling-stroke; fill: none; stroke: rgb(170, 170, 170); stroke-opacity: 1; stroke-width: 0px; opacity: 1;"/></g><g class="points"/><g class="text"/></g><g class="trace scatter trace7803e4" style="stroke-miterlimit: 2;"><g class="fills"/><g class="errorbars"/><g class="lines"><path class="js-line" d="M0,390.59L10,387.19L10.32,387.11L21.26,385.36L21.57,385.33L32.52,385.37L32.83,385.39L46.9,387.48L47.21,387.55L70.97,393.66L71.28,393.74L86.92,397.36L87.23,397.42L98.17,398.81L98.49,398.83L109.12,398.79L109.43,398.76L118.18,397.45L118.5,397.38L127.87,394.53L128.19,394.41L139.13,389.07L139.44,388.88L147.57,383.48L147.88,383.25L156.95,375.83L157.26,375.55L169.15,363.77L169.46,363.43L183.84,346.6L184.15,346.2L197.91,328.27L198.22,327.85L237.62,275.61L237.93,275.24L250.43,261.09L250.75,260.76L263.25,248.89L263.57,248.62L274.51,240.4L274.82,240.2L284.83,234.6L285.14,234.45L295.46,230.6L295.77,230.51L304.52,228.7L304.84,228.66L314.84,228.08L315.15,228.09L324.85,228.81L325.16,228.85L342.35,232.33L342.67,232.41L377.68,240.88L378,240.92L388.63,241.89L388.94,241.9L398.63,241.49L398.94,241.46L408.95,239.49L409.26,239.41L418.95,235.84L419.27,235.7L430.21,229.6L430.52,229.4L440.21,222.17L440.53,221.91L451.78,211.5L452.1,211.18L465.54,196.27L465.85,195.9L477.42,181.42L477.73,181.01L491.18,163.02L491.49,162.59L524.63,118.8L524.94,118.42L540.26,101.34L540.58,101.02L552.46,90.17L552.77,89.91L563.4,82.26L563.71,82.07L574.97,76.23L575.28,76.1L584.35,73.07L584.66,72.99L593.73,71.38L594.04,71.35L604.36,71.07L604.67,71.08L614.99,72.16L615.3,72.2L635.31,76.76L635.62,76.84L640,78.03" style="vector-effect: non-scaling-stroke; fill: none; stroke: rgb(170, 170, 170); stroke-opacity: 1; stroke-width: 0px; opacity: 1;"/></g><g class="points"/><g class="text"/></g><g class="trace scatter trace9d3589" style="stroke-miterlimit: 2; opacity: 1;"><g class="fills"/><g class="errorbars"/><g class="lines"><path class="js-line" d="M0,365.6L8.44,362.61L8.75,362.52L20.01,360.46L20.32,360.43L32.52,360.37L32.83,360.39L46.9,362.48L47.21,362.55L70.97,368.66L71.28,368.74L86.92,372.36L87.23,372.42L98.17,373.81L98.49,373.83L109.12,373.79L109.43,373.76L118.18,372.45L118.5,372.38L127.87,369.53L128.19,369.41L137.25,365.13L137.57,364.96L146.63,359.17L146.95,358.94L158.2,349.7L158.51,349.41L169.15,338.77L169.46,338.43L183.84,321.6L184.15,321.21L202.29,297.36L202.6,296.93L237.62,250.61L237.93,250.24L250.43,236.09L250.75,235.76L263.25,223.89L263.57,223.62L274.51,215.4L274.82,215.2L284.83,209.6L285.14,209.45L295.46,205.6L295.77,205.51L304.52,203.7L304.84,203.66L314.84,203.08L315.15,203.09L324.85,203.81L325.16,203.86L337.98,206.26L338.29,206.33L377.68,215.88L378,215.92L388.63,216.89L388.94,216.9L398.63,216.5L398.94,216.46L408.95,214.49L409.26,214.41L418.95,210.84L419.27,210.7L430.21,204.6L430.52,204.4L440.21,197.17L440.53,196.91L451.78,186.5L452.1,186.18L465.54,171.27L465.85,170.9L477.42,156.42L477.73,156.01L491.18,138.02L491.49,137.59L524.63,93.8L524.94,93.42L540.26,76.34L540.58,76.02L552.46,65.17L552.77,64.91L563.4,57.27L563.71,57.07L574.97,51.23L575.28,51.1L584.35,48.07L584.66,47.99L593.73,46.38L594.04,46.35L604.36,46.07L604.67,46.08L617.8,47.63L618.11,47.69L634.37,51.5L634.68,51.59L640,53.03" style="vector-effect: non-scaling-stroke; fill: none; stroke: rgb(0, 0, 0); stroke-opacity: 1; stroke-width: 2px; opacity: 1;"/></g><g class="points"/><g class="text"/></g></g></g><g class="overplot"/><path class="xlines-above crisp" d="M0,0" style="fill: none;"/><path class="ylines-above crisp" d="M0,0" style="fill: none;"/><g class="overlines-above"/><g class="xaxislayer-above"><g class="xtick"><text text-anchor="middle" x="0" y="533" transform="translate(80,0)" style="font-family: 'Open Sans', verdana, arial, sans-serif; font-size: 12px; fill: rgb(42, 63, 95); fill-opacity: 1; white-space: pre;">8</text></g><g class="xtick"><text text-anchor="middle" x="0" y="533" transform="translate(171.43,0)" style="font-family: 'Open Sans', verdana, arial, sans-serif; font-size: 12px; fill: rgb(42, 63, 95); fill-opacity: 1; white-space: pre;">10</text></g><g class="xtick"><text text-anchor="middle" x="0" y="533" transform="translate(262.86,0)" style="font-family: 'Open Sans', verdana, arial, sans-serif; font-size: 12px; fill: rgb(42, 63, 95); fill-opacity: 1; white-space: pre;">12</text></g><g class="xtick"><text text-anchor="middle" x="0" y="533" transform="translate(354.29,0)" style="font-family: 'Open Sans', verdana, arial, sans-serif; font-size: 12px; fill: rgb(42, 63, 95); fill-opacity: 1; white-space: pre;">14</text></g><g class="xtick"><text text-anchor="middle" x="0" y="533" transform="translate(445.71,0)" style="font-family: 'Open Sans', verdana, arial, sans-serif; font-size: 12px; fill: rgb(42, 63, 95); fill-opacity: 1; white-space: pre;">16</text></g><g class="xtick"><text text-anchor="middle" x="0" y="533" transform="translate(537.14,0)" style="font-family: 'Open Sans', verdana, arial, sans-serif; font-size: 12px; fill: rgb(42, 63, 95); fill-opacity: 1; white-space: pre;">18</text></g><g class="xtick"><text text-anchor="middle" x="0" y="533" transform="translate(628.57,0)" style="font-family: 'Open Sans', verdana, arial, sans-serif; font-size: 12px; fill: rgb(42, 63, 95); fill-opacity: 1; white-space: pre;">20</text></g><g class="xtick"><text text-anchor="middle" x="0" y="533" transform="translate(720,0)" style="font-family: 'Open Sans', verdana, arial, sans-serif; font-size: 12px; fill: rgb(42, 63, 95); fill-opacity: 1; white-space: pre;">22</text></g></g><g class="yaxislayer-above"><g class="ytick"><text text-anchor="end" x="79" y="4.199999999999999" transform="translate(0,502.7)" style="font-family: 'Open Sans', verdana, arial, sans-serif; font-size: 12px; fill: rgb(42, 63, 95); fill-opacity: 1; white-space: pre;">8</text></g><g class="ytick"><text text-anchor="end" x="79" y="4.199999999999999" transform="translate(0,452.7)" style="font-family: 'Open Sans', verdana, arial, sans-serif; font-size: 12px; fill: rgb(42, 63, 95); fill-opacity: 1; white-space: pre;">10</text></g><g class="ytick"><text text-anchor="end" x="79" y="4.199999999999999" transform="translate(0,402.7)" style="font-family: 'Open Sans', verdana, arial, sans-serif; font-size: 12px; fill: rgb(42, 63, 95); fill-opacity: 1; white-space: pre;">12</text></g><g class="ytick"><text text-anchor="end" x="79" y="4.199999999999999" transform="translate(0,352.7)" style="font-family: 'Open Sans', verdana, arial, sans-serif; font-size: 12px; fill: rgb(42, 63, 95); fill-opacity: 1; white-space: pre;">14</text></g><g class="ytick"><text text-anchor="end" x="79" y="4.199999999999999" transform="translate(0,302.7)" style="font-family: 'Open Sans', verdana, arial, sans-serif; font-size: 12px; fill: rgb(42, 63, 95); fill-opacity: 1; white-space: pre;">16</text></g><g class="ytick"><text text-anchor="end" x="79" y="4.199999999999999" transform="translate(0,252.7)" style="font-family: 'Open Sans', verdana, arial, sans-serif; font-size: 12px; fill: rgb(42, 63, 95); fill-opacity: 1; white-space: pre;">18</text></g><g class="ytick"><text text-anchor="end" x="79" y="4.199999999999999" transform="translate(0,202.7)" style="font-family: 'Open Sans', verdana, arial, sans-serif; font-size: 12px; fill: rgb(42, 63, 95); fill-opacity: 1; white-space: pre;">20</text></g><g class="ytick"><text text-anchor="end" x="79" y="4.199999999999999" transform="translate(0,152.7)" style="font-family: 'Open Sans', verdana, arial, sans-serif; font-size: 12px; fill: rgb(42, 63, 95); fill-opacity: 1; white-space: pre;">22</text></g><g class="ytick"><text text-anchor="end" x="79" y="4.199999999999999" transform="translate(0,102.7)" style="font-family: 'Open Sans', verdana, arial, sans-serif; font-size: 12px; fill: rgb(42, 63, 95); fill-opacity: 1; white-space: pre;">24</text></g></g><g class="overaxes-above"/></g></g><g class="polarlayer"/><g class="ternarylayer"/><g class="geolayer"/><g class="funnelarealayer"/><g class="pielayer"/><g class="treemaplayer"/><g class="sunburstlayer"/><g class="glimages"/><defs id="topdefs-c0aad8"><g class="clips"/><clipPath id="legendc0aad8"><rect width="147" height="29" x="0" y="0"/></clipPath></defs><g class="layer-above"><g class="imagelayer"/><g class="shapelayer"/></g><g class="infolayer"><g class="legend" pointer-events="all" transform="translate(86.4,104.2)"><rect class="bg" shape-rendering="crispEdges" style="stroke: rgb(68, 68, 68); stroke-opacity: 1; fill: rgb(255, 255, 255); fill-opacity: 1; stroke-width: 0px;" width="147" height="29" x="0" y="0"/><g class="scrollbox" transform="" clip-path="url('#legendc0aad8')"><g class="groups" transform=""><g class="traces" transform="translate(0,14.5)" style="opacity: 1;"><text class="legendtext" text-anchor="start" x="40" y="4.680000000000001" style="font-family: 'Open Sans', verdana, arial, sans-serif; font-size: 12px; fill: rgb(42, 63, 95); fill-opacity: 1; white-space: pre;">regression function</text><g class="layers" style="opacity: 1;"><g class="legendfill"/><g class="legendlines"><path class="js-line" d="M5,0h30" style="fill: none; stroke: rgb(0, 0, 0); stroke-opacity: 1; stroke-width: 2px;"/></g><g class="legendsymbols"><g class="legendpoints"/></g></g><rect class="legendtoggle" x="0" y="-9.5" width="141.390625" height="19" style="fill: rgb(0, 0, 0); fill-opacity: 0;"/></g></g></g><rect class="scrollbar" rx="20" ry="3" width="0" height="0" style="fill: rgb(128, 139, 164); fill-opacity: 1;" x="0" y="0"/></g><g class="g-gtitle"/><g class="g-xtitle"><text class="xtitle" x="400" y="560.8" text-anchor="middle" style="font-family: 'Open Sans', verdana, arial, sans-serif; font-size: 14px; fill: rgb(42, 63, 95); opacity: 1; font-weight: normal; white-space: pre;">x</text></g><g class="g-ytitle"><text class="ytitle" transform="rotate(-90,40.840625,310)" x="40.840625" y="310" text-anchor="middle" style="font-family: 'Open Sans', verdana, arial, sans-serif; font-size: 14px; fill: rgb(42, 63, 95); opacity: 1; font-weight: normal; white-space: pre;">y</text></g></g></svg>